<?xml version="1.0" encoding="UTF-8" standalone="no"?>
<!-- Created with Inkscape (http://www.inkscape.org/) -->

<svg
        xmlns:dc="http://purl.org/dc/elements/1.1/"
        xmlns:cc="http://creativecommons.org/ns#"
        xmlns:rdf="http://www.w3.org/1999/02/22-rdf-syntax-ns#"
        xmlns="http://www.w3.org/2000/svg"
        xmlns:sodipodi="http://sodipodi.sourceforge.net/DTD/sodipodi-0.dtd"
        xmlns:inkscape="http://www.inkscape.org/namespaces/inkscape"
        version="1.1"
        id="svg2"
        xml:space="preserve"
        width="312.9758"
        height="49.634457"
        viewBox="0 0 312.9758 49.634457"
        sodipodi:docname="running-dinner-top-gl-rye.svg"
        inkscape:version="0.92.4 (5da689c313, 2019-01-14)"
        inkscape:export-filename="/home/sbglasius/soeren@glasius.dk/Byens Egen Butik/Udvalg: Aktiviteter/2020-03-07 - Running Dinner/grafik/running-dinner-top-gl-rye.png"
        inkscape:export-xdpi="96"
        inkscape:export-ydpi="96"><metadata
     id="metadata8"><rdf:RDF><cc:Work
         rdf:about=""><dc:format>image/svg+xml</dc:format><dc:type
           rdf:resource="http://purl.org/dc/dcmitype/StillImage" /><dc:title></dc:title></cc:Work></rdf:RDF></metadata><defs
     id="defs6"><clipPath
       clipPathUnits="userSpaceOnUse"
       id="clipPath18"><path
         d="M 0,595.28 H 841.89 V 0 H 0 Z"
         id="path16"
         inkscape:connector-curvature="0" /></clipPath></defs><sodipodi:namedview
     pagecolor="#ffffff"
     bordercolor="#666666"
     borderopacity="1"
     objecttolerance="10"
     gridtolerance="10"
     guidetolerance="10"
     inkscape:pageopacity="0"
     inkscape:pageshadow="2"
     inkscape:window-width="640"
     inkscape:window-height="480"
     id="namedview4"
     showgrid="false"
     inkscape:zoom="6.1570256"
     inkscape:cx="126.1973"
     inkscape:cy="24.817228"
     inkscape:current-layer="g20"
     showguides="true"
     inkscape:guide-bbox="true"
     fit-margin-top="0"
     fit-margin-left="5"
     fit-margin-right="5"
     fit-margin-bottom="0"
     inkscape:pagecheckerboard="true"><sodipodi:guide
       position="171.46996,306.58916"
       orientation="0,1"
       id="guide4538"
       inkscape:locked="false" /><sodipodi:guide
       position="434.28433,607.49604"
       orientation="1,0"
       id="guide4557"
       inkscape:locked="false" /></sodipodi:namedview><g
     id="g10"
     inkscape:groupmode="layer"
     inkscape:label="cutlery-1588097"
     transform="matrix(1.3333333,0,0,-1.3333333,-72.938323,188.85751)"><g
       id="g12"><g
   id="g14"
   clip-path="url(#clipPath18)"
   transform="matrix(0.08197347,0,0,0.08197347,53.303023,95.621656)"><circle
   style="opacity:1;vector-effect:none;fill:#ee964b;fill-opacity:1;stroke:none;stroke-width:0.08175;stroke-linecap:round;stroke-linejoin:round;stroke-miterlimit:4;stroke-dasharray:none;stroke-dashoffset:0;stroke-opacity:1;paint-order:normal"
   id="path6117"
   cx="380.90149"
   cy="-333.79697"
   r="143.42781"
   transform="scale(1,-1)"
   inkscape:export-xdpi="136"
   inkscape:export-ydpi="136" /><g
   id="g20"
   transform="translate(377.938,189.4463)"><path
   style="display:inline;opacity:1;vector-effect:none;fill:#0e2e5e;fill-opacity:1;stroke:#7e7e7e;stroke-width:2;stroke-linecap:round;stroke-linejoin:round;stroke-miterlimit:4;stroke-dasharray:none;stroke-dashoffset:0;stroke-opacity:1;paint-order:normal"
   d="M 432.26562,5.0507812 A 301.74747,301.74747 0 0 0 130.51758,306.79688 301.74747,301.74747 0 0 0 432.26562,608.54492 301.74747,301.74747 0 0 0 734.01172,306.79688 301.74747,301.74747 0 0 0 432.26562,5.0507812 Z m 0,111.0898388 a 190.65708,190.65708 0 0 1 190.65626,190.65626 190.65708,190.65708 0 0 1 -190.65626,190.6582 190.65708,190.65708 0 0 1 -190.6582,-190.6582 190.65708,190.65708 0 0 1 190.6582,-190.65626 z"
   transform="matrix(0.75000002,0,0,-0.75000002,-321.71969,375.01095)"
   id="path4562"
   inkscape:connector-curvature="0" /><g
   aria-label="RUNNING  DINNER"
   transform="matrix(1.1357001,0,0,-1.1357001,12.63013,-19.790845)"
   style="font-style:normal;font-variant:normal;font-weight:normal;font-stretch:normal;font-size:124.11546326px;line-height:1;font-family:Montserrat;-inkscape-font-specification:'Montserrat, Normal';font-variant-ligatures:normal;font-variant-position:normal;font-variant-caps:normal;font-variant-numeric:normal;font-variant-alternates:normal;font-feature-settings:normal;text-indent:0;text-align:center;text-decoration:none;text-decoration-line:none;text-decoration-style:solid;text-decoration-color:#000000;letter-spacing:0px;word-spacing:0px;text-transform:none;writing-mode:lr-tb;direction:ltr;text-orientation:mixed;dominant-baseline:auto;baseline-shift:baseline;text-anchor:middle;white-space:normal;shape-padding:0;display:inline;opacity:1;vector-effect:none;fill:#ffffff;fill-opacity:1;stroke:#efffff;stroke-width:3;stroke-linecap:round;stroke-linejoin:round;stroke-miterlimit:4;stroke-dasharray:none;stroke-dashoffset:0;stroke-opacity:1;paint-order:normal"
   id="text4615"><path
     d="m -258.2485,-162.8963 -16.75559,-24.20252 h -0.99292 -17.50028 v 24.20252 H -313.604 v -86.88083 h 37.60699 q 11.54273,0 19.98259,3.84758 8.56396,3.84758 13.15624,10.92216 4.59227,7.07459 4.59227,16.75559 0,9.68101 -4.71639,16.75559 -4.59227,6.95047 -13.15624,10.67393 l 19.48613,27.92598 z m -0.37235,-55.3555 q 0,-7.32281 -4.71639,-11.17039 -4.71638,-3.97169 -13.77681,-3.97169 h -16.38324 v 30.28417 h 16.38324 q 9.06043,0 13.77681,-3.9717 4.71639,-3.97169 4.71639,-11.17039 z"
     style="font-style:normal;font-variant:normal;font-weight:bold;font-stretch:normal;font-size:124.11546326px;font-family:Montserrat;-inkscape-font-specification:'Montserrat, Bold';font-variant-ligatures:normal;font-variant-caps:normal;font-variant-numeric:normal;font-feature-settings:normal;text-align:center;letter-spacing:0px;word-spacing:0px;writing-mode:lr-tb;text-anchor:middle;fill:#ffffff;fill-opacity:1;stroke:#f7ffff;stroke-width:3;stroke-miterlimit:4;stroke-dasharray:none;stroke-opacity:1"
     id="path7861"
     inkscape:connector-curvature="0" /><path
     d="m -183.8568,-161.40692 q -18.61732,0 -29.04301,-10.30158 -10.30159,-10.30158 -10.30159,-29.41536 v -48.65327 h 20.10671 v 47.90857 q 0,23.33371 19.36201,23.33371 9.43277,0 14.39739,-5.5852 4.96462,-5.70931 4.96462,-17.74851 v -47.90857 h 19.85848 v 48.65327 q 0,19.11378 -10.4257,29.41536 -10.30159,10.30158 -28.91891,10.30158 z"
     style="font-style:normal;font-variant:normal;font-weight:bold;font-stretch:normal;font-size:124.11546326px;font-family:Montserrat;-inkscape-font-specification:'Montserrat, Bold';font-variant-ligatures:normal;font-variant-caps:normal;font-variant-numeric:normal;font-feature-settings:normal;text-align:center;letter-spacing:0px;word-spacing:0px;writing-mode:lr-tb;text-anchor:middle;fill:#ffffff;fill-opacity:1;stroke:#f7ffff;stroke-width:3;stroke-miterlimit:4;stroke-dasharray:none;stroke-opacity:1"
     id="path7863"
     inkscape:connector-curvature="0" /><path
     d="m -45.082134,-249.77713 v 86.88083 h -16.507357 l -43.316299,-52.74907 v 52.74907 h -19.85847 v -86.88083 h 16.63147 l 43.192182,52.74908 v -52.74908 z"
     style="font-style:normal;font-variant:normal;font-weight:bold;font-stretch:normal;font-size:124.11546326px;font-family:Montserrat;-inkscape-font-specification:'Montserrat, Bold';font-variant-ligatures:normal;font-variant-caps:normal;font-variant-numeric:normal;font-feature-settings:normal;text-align:center;letter-spacing:0px;word-spacing:0px;writing-mode:lr-tb;text-anchor:middle;fill:#ffffff;fill-opacity:1;stroke:#f7ffff;stroke-width:3;stroke-miterlimit:4;stroke-dasharray:none;stroke-opacity:1"
     id="path7865"
     inkscape:connector-curvature="0" /><path
     d="m 55.276859,-249.77713 v 86.88083 H 38.769503 l -43.316297,-52.74907 v 52.74907 h -19.858474 v -86.88083 h 16.6314719 l 43.1921811,52.74908 v -52.74908 z"
     style="font-style:normal;font-variant:normal;font-weight:bold;font-stretch:normal;font-size:124.11546326px;font-family:Montserrat;-inkscape-font-specification:'Montserrat, Bold';font-variant-ligatures:normal;font-variant-caps:normal;font-variant-numeric:normal;font-feature-settings:normal;text-align:center;letter-spacing:0px;word-spacing:0px;writing-mode:lr-tb;text-anchor:middle;fill:#ffffff;fill-opacity:1;stroke:#f7ffff;stroke-width:3;stroke-miterlimit:4;stroke-dasharray:none;stroke-opacity:1"
     id="path7867"
     inkscape:connector-curvature="0" /><path
     d="m 75.95371,-249.77713 h 20.106705 v 86.88083 H 75.95371 Z"
     style="font-style:normal;font-variant:normal;font-weight:bold;font-stretch:normal;font-size:124.11546326px;font-family:Montserrat;-inkscape-font-specification:'Montserrat, Bold';font-variant-ligatures:normal;font-variant-caps:normal;font-variant-numeric:normal;font-feature-settings:normal;text-align:center;letter-spacing:0px;word-spacing:0px;writing-mode:lr-tb;text-anchor:middle;fill:#ffffff;fill-opacity:1;stroke:#f7ffff;stroke-width:3;stroke-miterlimit:4;stroke-dasharray:none;stroke-opacity:1"
     id="path7869"
     inkscape:connector-curvature="0" /><path
     d="m 196.36121,-249.77713 v 86.88083 h -16.50736 l -43.31629,-52.74907 v 52.74907 h -19.85848 v -86.88083 h 16.63147 l 43.19219,52.74908 v -52.74908 z"
     style="font-style:normal;font-variant:normal;font-weight:bold;font-stretch:normal;font-size:124.11546326px;font-family:Montserrat;-inkscape-font-specification:'Montserrat, Bold';font-variant-ligatures:normal;font-variant-caps:normal;font-variant-numeric:normal;font-feature-settings:normal;text-align:center;letter-spacing:0px;word-spacing:0px;writing-mode:lr-tb;text-anchor:middle;fill:#ffffff;fill-opacity:1;stroke:#f7ffff;stroke-width:3;stroke-miterlimit:4;stroke-dasharray:none;stroke-opacity:1"
     id="path7871"
     inkscape:connector-curvature="0" /><path
     d="m 275.74471,-207.70198 h 18.36908 v 35.24879 q -7.07458,5.33696 -16.38324,8.19162 -9.30866,2.85465 -18.74143,2.85465 -13.52859,0 -24.32663,-5.70931 -10.79805,-5.83342 -17.00382,-16.01089 -6.08166,-10.30159 -6.08166,-23.20959 0,-12.90801 6.08166,-23.08548 6.20577,-10.30158 17.12793,-16.01089 10.92216,-5.83343 24.57486,-5.83343 11.41863,0 20.72729,3.84758 9.30866,3.84758 15.63854,11.17039 l -12.908,11.91508 q -9.30866,-9.80512 -22.4649,-9.80512 -8.31574,0 -14.76974,3.47524 -6.45401,3.47523 -10.05335,9.80512 -3.59935,6.32989 -3.59935,14.52151 0,8.0675 3.59935,14.39739 3.59934,6.32989 9.92923,9.92924 6.45401,3.47523 14.64563,3.47523 8.68808,0 15.63855,-3.72346 z"
     style="font-style:normal;font-variant:normal;font-weight:bold;font-stretch:normal;font-size:124.11546326px;font-family:Montserrat;-inkscape-font-specification:'Montserrat, Bold';font-variant-ligatures:normal;font-variant-caps:normal;font-variant-numeric:normal;font-feature-settings:normal;text-align:center;letter-spacing:0px;word-spacing:0px;writing-mode:lr-tb;text-anchor:middle;fill:#ffffff;fill-opacity:1;stroke:#f7ffff;stroke-width:3;stroke-miterlimit:4;stroke-dasharray:none;stroke-opacity:1"
     id="path7873"
     inkscape:connector-curvature="0" /><path
     d="m -250.96192,-125.66166 h 39.46872 q 14.14916,0 24.94721,5.46108 10.92216,5.33696 16.8797,15.14208 6.08166,9.805126 6.08166,22.83725 0,13.032123 -6.08166,22.837245 -5.95754,9.805122 -16.8797,15.266202 -10.79805,5.336965 -24.94721,5.336965 h -39.46872 z m 38.47579,70.373465 q 13.03213,0 20.72729,-7.198696 7.81927,-7.322813 7.81927,-19.734359 0,-12.411546 -7.81927,-19.61024 -7.69516,-7.32282 -20.72729,-7.32282 h -18.36908 v 53.866115 z"
     style="font-style:normal;font-variant:normal;font-weight:bold;font-stretch:normal;font-size:124.11546326px;font-family:Montserrat;-inkscape-font-specification:'Montserrat, Bold';font-variant-ligatures:normal;font-variant-caps:normal;font-variant-numeric:normal;font-feature-settings:normal;text-align:center;letter-spacing:3.54790425px;word-spacing:0.01773952px;writing-mode:lr-tb;text-anchor:middle;fill:#ffffff;fill-opacity:1;stroke:#f7ffff;stroke-width:3;stroke-miterlimit:4;stroke-dasharray:none;stroke-opacity:1"
     id="path7875"
     inkscape:connector-curvature="0" /><path
     d="m -144.87331,-125.66166 h 20.1067 v 86.880822 h -20.1067 z"
     style="font-style:normal;font-variant:normal;font-weight:bold;font-stretch:normal;font-size:124.11546326px;font-family:Montserrat;-inkscape-font-specification:'Montserrat, Bold';font-variant-ligatures:normal;font-variant-caps:normal;font-variant-numeric:normal;font-feature-settings:normal;text-align:center;letter-spacing:3.54790425px;word-spacing:0.01773952px;writing-mode:lr-tb;text-anchor:middle;fill:#ffffff;fill-opacity:1;stroke:#f7ffff;stroke-width:3;stroke-miterlimit:4;stroke-dasharray:none;stroke-opacity:1"
     id="path7877"
     inkscape:connector-curvature="0" /><path
     d="m -20.9179,-125.66166 v 86.880822 H -37.425257 L -80.741553,-91.52991 v 52.749072 h -19.858477 v -86.880822 h 16.631475 l 43.192181,52.74907 v -52.74907 z"
     style="font-style:normal;font-variant:normal;font-weight:bold;font-stretch:normal;font-size:124.11546326px;font-family:Montserrat;-inkscape-font-specification:'Montserrat, Bold';font-variant-ligatures:normal;font-variant-caps:normal;font-variant-numeric:normal;font-feature-settings:normal;text-align:center;letter-spacing:3.54790425px;word-spacing:0.01773952px;writing-mode:lr-tb;text-anchor:middle;fill:#ffffff;fill-opacity:1;stroke:#f7ffff;stroke-width:3;stroke-miterlimit:4;stroke-dasharray:none;stroke-opacity:1"
     id="path7879"
     inkscape:connector-curvature="0" /><path
     d="m 82.988991,-125.66166 v 86.880822 H 66.481634 L 23.165338,-91.52991 v 52.749072 H 3.3068635 V -125.66166 H 19.938336 l 43.192181,52.74907 v -52.74907 z"
     style="font-style:normal;font-variant:normal;font-weight:bold;font-stretch:normal;font-size:124.11546326px;font-family:Montserrat;-inkscape-font-specification:'Montserrat, Bold';font-variant-ligatures:normal;font-variant-caps:normal;font-variant-numeric:normal;font-feature-settings:normal;text-align:center;letter-spacing:3.54790425px;word-spacing:0.01773952px;writing-mode:lr-tb;text-anchor:middle;fill:#ffffff;fill-opacity:1;stroke:#f7ffff;stroke-width:3;stroke-miterlimit:4;stroke-dasharray:none;stroke-opacity:1"
     id="path7881"
     inkscape:connector-curvature="0" /><path
     d="m 174.48434,-54.915848 v 16.13501 h -67.27059 v -86.880822 h 65.65708 v 16.13501 h -45.67449 v 18.865548 h 40.33753 v 15.638549 h -40.33753 v 20.106705 z"
     style="font-style:normal;font-variant:normal;font-weight:bold;font-stretch:normal;font-size:124.11546326px;font-family:Montserrat;-inkscape-font-specification:'Montserrat, Bold';font-variant-ligatures:normal;font-variant-caps:normal;font-variant-numeric:normal;font-feature-settings:normal;text-align:center;letter-spacing:3.54790425px;word-spacing:0.01773952px;writing-mode:lr-tb;text-anchor:middle;fill:#ffffff;fill-opacity:1;stroke:#f7ffff;stroke-width:3;stroke-miterlimit:4;stroke-dasharray:none;stroke-opacity:1"
     id="path7883"
     inkscape:connector-curvature="0" /><path
     d="m 249.50724,-38.780838 -16.75559,-24.202515 h -0.99292 -17.50028 v 24.202515 h -20.10671 v -86.880822 h 37.60699 q 11.54274,0 19.98259,3.84758 8.56396,3.84758 13.15624,10.92216 4.59227,7.07458 4.59227,16.755585 0,9.681007 -4.71639,16.755588 -4.59227,6.950466 -13.15624,10.67393 l 19.48613,27.925979 z m -0.37235,-55.355497 q 0,-7.322815 -4.71638,-11.170395 -4.71639,-3.97169 -13.77682,-3.97169 h -16.38324 v 30.284172 h 16.38324 q 9.06043,0 13.77682,-3.971695 4.71638,-3.971695 4.71638,-11.170392 z"
     style="font-style:normal;font-variant:normal;font-weight:bold;font-stretch:normal;font-size:124.11546326px;font-family:Montserrat;-inkscape-font-specification:'Montserrat, Bold';font-variant-ligatures:normal;font-variant-caps:normal;font-variant-numeric:normal;font-feature-settings:normal;text-align:center;letter-spacing:3.54790425px;word-spacing:0.01773952px;writing-mode:lr-tb;text-anchor:middle;fill:#ffffff;fill-opacity:1;stroke:#f7ffff;stroke-width:3;stroke-miterlimit:4;stroke-dasharray:none;stroke-opacity:1"
     id="path7885"
     inkscape:connector-curvature="0" /></g>
</g>
</g><text
   xml:space="preserve"
   style="font-style:normal;font-variant:normal;font-weight:600;font-stretch:normal;font-size:23.38255692px;line-height:1.25;font-family:Montserrat;-inkscape-font-specification:'Montserrat Semi-Bold';font-variant-ligatures:normal;font-variant-caps:normal;font-variant-numeric:normal;text-align:start;letter-spacing:0px;word-spacing:0px;writing-mode:lr-tb;text-anchor:start;fill:#ffffff;fill-opacity:1;stroke:none;stroke-width:1.46140981"
   x="122.83302"
   y="-114.84631"
   id="text856"
   transform="scale(1,-1)"><tspan
     sodipodi:role="line"
     id="tspan854"
     x="122.83302"
     y="-114.84631"
     style="font-style:normal;font-variant:normal;font-weight:600;font-stretch:normal;font-family:Montserrat;-inkscape-font-specification:'Montserrat Semi-Bold';fill:#ffffff;stroke-width:1.46140981">GAMMEL RYE</tspan></text>


</g></g></svg>
